# xmcd
#
# Track frame offsets:
#	150
#	12602
#	25580
#	40236
#	55649
#	71463
#	86380
#	100011
#	114834
#	130781
#	143209
#	158563
#	173116
#	184645
#	200062
#
# Disc length: 2841 seconds
#
# Revision: 1
# Processed by: cddbd v1.5.1PL2 Copyright (c) Steve Scherf et al.
# Submitted via: audiograbber 1.83.01
#
DISCID=b80b170f
DTITLE=Chartbuster - CB90125
DYEAR=1900
DGENRE=
TTITLE0=McDowell, Ronnie - Older Women
TTITLE1=McDowell, Ronnie - Watching Girls Go By
TTITLE2=McDowell, Ronnie - Wandering Eyes
TTITLE3=McDowell, Ronnie - The King Is Gone
TTITLE4=McDowell, Ronnie - Personally
TTITLE5=McDowell, Ronnie - You're Gonna Ruin My Bad Reputation
TTITLE6=McDowell, Ronnie - You Made A Wanted Man Out Of Me
TTITLE7=McDowell, Ronnie - I Dream Of Women Like You
TTITLE8=McDowell, Ronnie - I Got A Million Of 'Em
TTITLE9=McDowell, Ronnie - In A New York Minute
TTITLE10=McDowell, Ronnie - Love Talks
TTITLE11=McDowell, Ronnie - All Tied Up
TTITLE12=McDowell, Ronnie - It's Only Make Believe
TTITLE13=McDowell, Ronnie - When You Hurt I Hurt
TTITLE14=McDowell, Ronnie - Don't Let Go
EXTD=
EXTT0=
EXTT1=
EXTT2=
EXTT3=
EXTT4=
EXTT5=
EXTT6=
EXTT7=
EXTT8=
EXTT9=
EXTT10=
EXTT11=
EXTT12=
EXTT13=
EXTT14=
PLAYORDER=
